<?xml version="1.0" standalone="no"?>
<!DOCTYPE svg PUBLIC "-//W3C//DTD SVG 20010904//EN"
 "http://www.w3.org/TR/2001/REC-SVG-20010904/DTD/svg10.dtd">
<svg version="1.0" xmlns="http://www.w3.org/2000/svg"
 width="1080.000000pt" height="1080.000000pt" viewBox="0 0 1080.000000 1080.000000"
 preserveAspectRatio="xMidYMid meet">

<g transform="translate(0.000000,1080.000000) scale(0.100000,-0.100000)"
fill="#000000" stroke="none">
<path d="M5020 10210 c-92 -9 -197 -33 -242 -56 -59 -31 -128 -107 -128 -142
0 -5 63 -13 141 -17 133 -7 142 -6 155 13 33 48 135 67 199 37 38 -19 55 -51
55 -106 l0 -40 -37 8 c-21 4 -90 8 -153 7 -94 -1 -126 -5 -174 -24 -171 -66
-223 -218 -115 -335 58 -63 110 -80 239 -80 83 0 119 5 172 23 37 13 71 29 75
35 4 7 9 2 13 -13 3 -14 10 -25 15 -25 198 5 432 19 439 25 4 4 5 56 1 115
l-8 107 -42 -4 -43 -3 -6 130 c-9 173 -24 223 -80 272 -52 45 -94 60 -209 73
-91 11 -142 11 -267 0z m171 -400 c16 -9 19 -22 19 -75 0 -61 -1 -65 -30 -80
-16 -8 -49 -15 -74 -15 -37 0 -48 5 -70 31 -39 46 -30 114 18 137 28 14 112
15 137 2z"/>
<path d="M6113 10096 c-150 -49 -242 -168 -251 -326 -10 -177 99 -306 320
-382 83 -28 106 -32 208 -32 149 -1 202 16 278 89 30 30 53 58 50 65 -2 6 -56
36 -121 67 l-119 57 -31 -36 c-18 -20 -43 -42 -56 -48 -32 -16 -84 -5 -121 26
-74 62 -57 214 32 289 28 23 39 27 81 22 60 -5 103 -43 120 -104 10 -39 14
-43 56 -52 26 -5 74 -16 109 -25 61 -14 62 -14 67 7 3 12 19 77 34 145 l29
123 -22 8 c-11 4 -59 16 -105 26 -78 18 -84 18 -96 2 -11 -15 -15 -14 -51 12
-70 50 -148 73 -264 77 -71 3 -119 -1 -147 -10z"/>
<path d="M7235 10101 c-58 -24 -80 -99 -46 -155 44 -71 180 -134 265 -123 78
11 117 87 82 156 -46 89 -215 157 -301 122z"/>
<path d="M4011 10049 c-99 -19 -213 -104 -279 -209 -19 -30 -36 -57 -38 -59
-2 -2 -20 7 -41 20 -59 37 -157 34 -244 -7 -68 -33 -161 -114 -197 -174 l-21
-33 -18 39 c-9 21 -18 40 -19 42 -1 3 -398 -169 -408 -178 -9 -9 72 -200 85
-200 5 0 24 6 43 14 l32 13 51 -116 51 -116 -37 -17 c-20 -9 -36 -21 -36 -25
0 -20 80 -193 89 -193 13 0 477 200 490 211 5 5 -10 51 -34 108 l-44 100 -35
-16 c-20 -8 -40 -17 -46 -19 -5 -2 -29 39 -52 93 l-42 97 24 32 c29 37 88 68
116 59 28 -9 56 -58 138 -247 l73 -166 77 33 c42 18 129 56 193 83 178 77 163
57 117 164 -22 51 -44 97 -49 101 -4 5 -21 2 -38 -7 -17 -9 -37 -16 -44 -16
-7 0 -30 41 -51 92 -35 82 -37 94 -25 116 17 33 77 72 109 72 42 0 67 -40 148
-226 40 -93 77 -173 81 -177 6 -7 394 155 413 172 6 6 -65 186 -79 200 -2 2
-22 -3 -45 -12 l-41 -16 -25 57 c-89 205 -135 270 -206 296 -61 21 -87 24
-136 15z"/>
<path d="M7021 9804 c-57 -120 -57 -119 -21 -134 16 -7 30 -14 30 -15 0 -2
-24 -55 -53 -118 l-53 -115 -33 14 -33 14 -44 -95 c-24 -52 -44 -98 -44 -103
0 -6 379 -187 441 -210 8 -3 99 181 99 199 0 5 -6 9 -12 9 -44 1 -41 16 57
226 53 115 99 214 101 220 3 7 -7 16 -23 22 -15 5 -106 46 -200 90 l-173 81
-39 -85z"/>
<path d="M7695 9392 c-132 -45 -215 -166 -215 -312 0 -130 71 -261 198 -366
129 -107 248 -157 372 -158 102 0 167 23 235 85 77 71 109 142 108 239 -1 160
-102 315 -285 436 -135 90 -290 118 -413 76z m310 -262 c106 -40 97 -166 -19
-267 -103 -91 -242 18 -180 140 31 59 68 100 109 118 47 22 55 22 90 9z"/>
<path d="M2183 9374 c-96 -35 -192 -157 -180 -231 7 -43 23 -62 64 -79 93 -39
283 111 283 223 0 44 -43 90 -90 97 -19 3 -54 -2 -77 -10z"/>
<path d="M2288 9059 l-166 -143 38 -46 c21 -25 54 -63 73 -85 l35 -40 26 24
c16 15 30 21 35 15 36 -38 151 -177 151 -181 0 -4 -10 -17 -22 -30 -19 -20
-20 -25 -6 -40 88 -105 122 -143 130 -143 12 0 368 309 368 320 0 10 -128 160
-136 160 -3 0 -15 -7 -28 -15 -22 -15 -25 -11 -152 136 -71 83 -140 164 -155
181 l-25 30 -166 -143z"/>
<path d="M1562 8755 c-73 -86 -135 -161 -138 -168 -3 -8 30 -42 76 -82 l81
-68 27 26 27 26 212 -182 212 -182 -19 -20 c-11 -12 -20 -26 -20 -32 0 -15
151 -144 163 -140 5 1 81 86 168 187 l159 185 -53 48 c-28 27 -67 61 -86 75
l-33 26 -19 -23 c-17 -21 -21 -22 -37 -9 -444 379 -573 488 -579 488 -5 0 -68
-70 -141 -155z"/>
<path d="M8676 8669 c-43 -32 -81 -61 -84 -64 -3 -3 4 -19 16 -35 12 -16 22
-33 22 -39 0 -5 -44 -41 -97 -80 l-98 -71 -30 35 -30 34 -88 -65 -88 -65 23
-32 c30 -42 299 -411 303 -416 6 -6 175 121 175 132 0 5 -12 26 -26 45 -22 28
-24 36 -13 43 8 4 47 33 88 63 41 31 78 56 81 56 4 0 26 -13 48 -30 45 -32 60
-68 46 -109 -8 -22 -146 -133 -326 -263 -16 -12 -6 -30 111 -188 71 -96 135
-175 143 -174 18 1 168 111 168 123 0 5 -10 20 -21 35 -12 15 -20 28 -18 30 2
1 49 37 105 79 113 84 148 122 177 186 24 55 19 128 -13 191 -43 85 -151 179
-242 211 l-38 13 32 27 32 26 -130 178 c-72 99 -135 180 -140 181 -5 1 -44
-24 -88 -57z"/>
<path d="M1499 8047 c-93 -39 -141 -81 -198 -172 -36 -57 -71 -161 -71 -211 0
-19 -3 -34 -6 -34 -6 0 -99 49 -240 126 l-62 34 -103 -197 c-57 -108 -105
-199 -107 -204 -3 -7 138 -88 180 -104 12 -5 22 3 37 33 l20 40 238 -125 c131
-69 242 -129 246 -133 5 -4 0 -25 -11 -46 l-20 -39 98 -52 99 -53 107 202 c99
187 105 202 89 215 -17 12 -16 14 11 35 157 122 217 329 142 490 -78 167 -293
261 -449 195z m112 -355 c58 -30 99 -80 99 -119 0 -58 -60 -123 -114 -123 -44
0 -127 42 -159 79 -33 40 -36 92 -7 139 36 59 99 67 181 24z"/>
<path d="M3269 8027 c-9 -7 -21 -22 -27 -34 -9 -16 -12 -566 -12 -2210 0
-2394 -4 -2243 57 -2355 37 -67 121 -143 200 -181 l68 -32 1460 0 1460 0 55
22 c80 33 149 89 197 161 66 98 75 138 80 362 l4 195 197 6 c295 9 472 52 717
174 167 84 293 174 425 305 254 252 411 548 477 903 24 128 24 436 0 564 -66
355 -223 651 -477 903 -132 131 -258 221 -425 304 -248 124 -420 166 -718 175
l-198 6 1 327 c1 349 -4 383 -48 407 -14 7 -162 11 -451 11 l-430 0 -25 -22
c-38 -35 -39 -86 -1 -123 l24 -25 375 0 375 0 3 -350 c3 -348 3 -350 26 -372
22 -22 30 -23 270 -29 197 -5 268 -11 349 -28 190 -40 373 -117 543 -230 112
-74 291 -249 373 -364 377 -529 377 -1215 0 -1744 -82 -115 -261 -290 -373
-364 -170 -113 -353 -190 -543 -230 -81 -17 -152 -23 -349 -28 -240 -6 -248
-7 -270 -29 -22 -22 -23 -29 -28 -280 -5 -239 -6 -260 -27 -297 -25 -47 -74
-95 -123 -121 -34 -18 -92 -19 -1439 -22 -1546 -3 -1466 -6 -1544 59 -21 17
-50 54 -65 83 l-27 51 -3 2148 -2 2147 1091 0 c810 0 1096 3 1112 12 53 28 64
92 22 133 l-24 25 -1158 0 c-895 -1 -1162 -3 -1174 -13z"/>
<path d="M9229 7454 c-105 -32 -192 -121 -224 -227 -43 -143 11 -379 121 -528
43 -58 139 -125 194 -134 23 -4 43 -5 45 -3 4 3 -47 234 -61 281 -3 10 -15 17
-28 17 -62 0 -109 89 -82 154 13 32 77 86 102 86 11 0 35 -60 149 -377 27 -73
53 -133 59 -133 22 0 118 62 157 101 65 65 92 136 97 249 4 86 1 105 -27 190
-55 166 -150 277 -275 320 -65 23 -160 25 -227 4z m322 -333 c46 -47 35 -111
-27 -152 -50 -33 -59 -27 -93 67 -17 47 -31 90 -31 94 0 11 26 17 78 19 36 1
49 -4 73 -28z"/>
<path d="M856 6843 c-38 -187 -77 -415 -73 -419 5 -5 190 -44 209 -44 4 0 10
20 14 45 3 25 10 45 15 45 4 0 55 -9 111 -20 57 -11 104 -20 104 -20 1 0 5
-19 8 -42 7 -47 -6 -107 -26 -120 -25 -15 -104 -8 -278 26 -96 19 -177 32
-179 30 -5 -5 -81 -404 -81 -426 0 -13 20 -20 98 -33 53 -10 101 -18 106 -19
5 0 14 16 19 37 5 20 14 37 21 37 6 0 63 -9 126 -21 136 -25 210 -21 272 13
47 26 101 98 118 156 17 61 12 184 -10 254 -11 34 -20 65 -20 68 0 3 18 4 40
2 22 -2 40 -2 40 -1 0 2 18 99 40 214 22 115 40 213 40 216 0 4 -42 14 -92 24
-51 9 -101 19 -110 22 -14 3 -19 -4 -24 -36 -4 -23 -12 -41 -18 -41 -6 0 -106
18 -221 40 -115 22 -218 40 -227 40 -10 0 -19 -11 -22 -27z"/>
<path d="M6669 6818 c-9 -7 -21 -23 -27 -35 -17 -30 -17 -2281 -1 -2316 21
-47 39 -49 295 -45 216 5 248 7 335 30 719 192 1102 942 829 1625 -141 352
-448 619 -829 721 -88 23 -117 25 -341 29 -188 3 -249 1 -261 -9z m561 -188
c389 -100 690 -419 766 -810 18 -90 20 -281 4 -370 -37 -214 -144 -415 -302
-565 -98 -95 -166 -141 -291 -200 -148 -69 -242 -89 -435 -89 l-162 -1 0 1028
c0 565 0 1030 0 1033 0 4 75 4 168 1 126 -4 188 -10 252 -27z"/>
<path d="M9655 6395 c-85 -30 -119 -102 -161 -344 -22 -123 -33 -167 -46 -175
-27 -17 -48 12 -55 76 -6 61 6 109 41 161 23 33 23 39 14 128 -5 52 -11 99
-12 104 -3 7 -38 7 -112 0 -86 -8 -109 -13 -109 -25 0 -8 4 -59 9 -112 7 -88
10 -98 27 -98 18 0 19 -4 12 -37 -4 -21 -8 -85 -7 -143 1 -124 24 -198 83
-263 45 -50 85 -67 156 -67 146 0 199 83 230 362 19 161 27 191 52 186 48 -9
57 -151 13 -225 -20 -35 -22 -45 -15 -141 l7 -104 97 7 c53 4 100 9 105 12 4
3 5 35 2 72 -13 129 -18 151 -33 151 -11 0 -13 5 -8 18 5 9 10 63 13 119 3 85
1 114 -17 173 -44 144 -158 210 -286 165z"/>
<path d="M1002 5613 c-24 -8 -69 -39 -101 -69 -61 -56 -73 -79 -172 -318 -47
-116 -83 -142 -130 -95 -18 18 -21 30 -16 72 4 46 10 56 53 95 53 49 51 40 38
195 l-6 69 -57 -6 c-31 -3 -96 -8 -144 -12 l-88 -6 6 -82 c10 -138 12 -146 42
-146 20 0 24 -3 18 -17 -38 -86 -47 -131 -42 -200 9 -125 72 -229 165 -274 37
-18 65 -23 127 -23 95 -1 150 22 215 87 49 49 64 76 126 233 59 150 75 174
118 174 45 0 66 -26 66 -82 0 -56 -30 -104 -82 -131 -35 -18 -38 -22 -33 -55
2 -21 7 -72 11 -115 l6 -79 41 6 c23 3 93 9 155 12 62 4 115 11 118 16 4 6 3
57 -1 114 l-7 104 -30 0 c-25 0 -29 3 -23 18 38 86 47 130 43 212 -7 140 -71
243 -183 296 -59 28 -164 32 -233 7z"/>
<path d="M9286 5049 c-18 -52 -142 -514 -162 -599 -44 -195 -26 -333 60 -447
124 -163 347 -240 549 -187 82 21 123 43 187 101 69 62 121 142 158 246 28 78
173 586 176 616 1 8 -33 23 -99 42 -130 37 -133 37 -141 -6 -5 -27 -11 -34
-23 -31 -9 3 -108 30 -221 61 -293 80 -271 72 -260 101 18 46 13 50 -91 78
-56 15 -108 30 -115 33 -8 3 -16 -1 -18 -8z m364 -578 c276 -77 259 -64 212
-161 -21 -44 -36 -60 -72 -78 -39 -21 -54 -23 -117 -18 -128 10 -256 72 -283
136 -17 41 -7 191 13 190 1 0 112 -31 247 -69z"/>
<path d="M3805 4245 c-52 -51 -15 -145 57 -145 40 0 88 48 88 88 0 72 -94 109
-145 57z"/>
<path d="M1273 4212 c-145 -52 -219 -154 -230 -322 -4 -58 0 -96 16 -160 92
-364 369 -554 614 -422 143 77 207 255 163 447 -27 115 -106 265 -180 340
-114 116 -260 161 -383 117z m286 -353 c30 -28 54 -86 47 -114 -10 -40 -49
-77 -110 -106 -94 -45 -149 -36 -193 30 -46 69 -19 131 78 180 77 38 143 42
178 10z"/>
<path d="M4169 3915 c-92 -50 -28 -188 71 -153 66 23 72 121 9 153 -34 18 -47
18 -80 0z"/>
<path d="M8918 3671 c-149 -49 -286 -192 -367 -383 -23 -56 -26 -76 -26 -178
0 -102 3 -121 25 -165 68 -138 216 -211 364 -180 130 27 237 109 336 256 138
207 146 419 21 562 -78 88 -234 128 -353 88z m68 -336 c23 -13 55 -40 73 -60
25 -29 31 -44 31 -81 0 -39 -5 -51 -34 -80 -42 -42 -86 -45 -154 -10 -107 55
-147 137 -100 206 45 66 101 73 184 25z"/>
<path d="M1966 3305 l-87 -67 16 -25 c16 -24 16 -26 -1 -43 -11 -10 -147 -116
-304 -235 -157 -120 -288 -221 -292 -224 -7 -6 246 -343 263 -349 5 -2 47 26
94 63 l85 66 -22 30 c-13 17 -18 32 -12 37 5 5 105 82 223 172 l214 163 19
-26 c11 -15 23 -27 28 -27 10 0 164 119 168 130 3 8 -248 342 -287 383 -16 17
-21 15 -105 -48z"/>
<path d="M8093 2734 c-114 -97 -209 -180 -211 -184 -2 -5 69 -95 134 -169 2
-2 21 11 42 28 l40 31 58 -68 c32 -37 64 -74 72 -84 11 -14 11 -21 -3 -48 -36
-70 -89 -96 -136 -67 -11 6 -79 81 -151 165 l-130 152 -57 -47 c-200 -168
-281 -238 -281 -244 0 -5 93 -120 136 -168 2 -3 18 9 35 25 l30 29 37 -45 c76
-94 177 -191 219 -211 25 -12 65 -22 91 -22 123 -2 271 129 319 281 l17 54 27
-33 27 -33 123 104 c68 57 147 124 176 148 l52 45 -61 71 c-94 111 -83 104
-117 71 -36 -34 -33 -36 -132 81 l-71 84 31 26 c17 14 31 29 31 33 0 4 -31 44
-69 89 l-69 82 -209 -176z"/>
<path d="M2350 2815 l-74 -74 23 -25 23 -25 -271 -283 c-149 -155 -271 -285
-271 -288 0 -3 72 -74 159 -158 l159 -152 76 82 76 82 -25 26 -26 27 157 164
c86 90 174 182 195 204 l39 39 27 -26 28 -26 77 82 76 82 -179 172 c-99 95
-184 172 -187 172 -4 0 -41 -34 -82 -75z"/>
<path d="M2810 2388 l-63 -91 22 -18 c14 -11 20 -23 15 -31 -4 -7 -65 -95
-136 -196 -70 -101 -128 -185 -128 -187 0 -2 66 -50 148 -106 81 -56 161 -113
179 -126 l31 -24 59 83 c33 46 62 88 66 95 4 6 -5 19 -23 30 l-30 19 72 102
c39 56 76 102 81 102 6 0 18 -7 28 -16 10 -9 22 -13 28 -10 13 8 121 163 121
174 0 6 -337 249 -395 284 -8 5 -35 -25 -75 -84z"/>
<path d="M3316 2012 c-25 -51 -46 -96 -46 -101 0 -5 15 -12 33 -16 51 -11 77
-32 77 -63 0 -27 -73 -192 -85 -192 -3 0 -32 13 -65 30 -43 22 -61 26 -66 18
-9 -14 -94 -188 -94 -192 0 -1 28 -15 63 -31 34 -16 63 -30 65 -31 2 -1 -23
-58 -56 -126 l-59 -125 96 -7 c53 -3 144 -6 202 -6 l106 0 23 50 c13 28 26 50
29 50 3 -1 17 -7 31 -15 14 -8 31 -14 37 -15 7 0 30 35 52 78 58 117 59 119
16 139 -24 11 -35 22 -32 33 3 8 31 71 63 140 75 160 81 217 34 297 -52 89
-176 154 -322 170 l-56 6 -46 -91z"/>
<path d="M6565 1826 c-147 -34 -276 -102 -340 -180 -64 -78 -105 -196 -105
-301 l0 -42 61 -7 c34 -3 98 -6 143 -6 l81 0 0 78 c1 60 6 86 21 113 31 53 77
79 140 79 48 0 58 -4 94 -36 100 -91 165 -351 110 -441 -52 -86 -193 -84 -265
4 l-21 25 -121 -39 -121 -38 55 -175 c30 -96 56 -176 57 -177 1 -1 54 15 119
35 124 39 120 35 99 90 -3 10 2 10 24 1 44 -18 180 -15 249 5 180 53 289 155
340 317 81 259 -36 550 -269 665 -73 35 -83 38 -184 41 -66 1 -130 -3 -167
-11z"/>
<path d="M4089 1774 c-100 -30 -169 -157 -140 -255 21 -71 89 -126 271 -218
140 -72 161 -85 158 -104 -8 -54 -150 -17 -211 54 -29 33 -43 40 -132 63 -55
14 -100 24 -101 23 -1 -1 -14 -46 -27 -100 -18 -70 -22 -99 -14 -102 7 -2 56
-15 110 -29 79 -19 99 -21 105 -10 6 10 17 6 52 -17 101 -68 274 -94 373 -55
60 23 101 76 118 151 26 115 -33 184 -262 313 -81 45 -150 90 -153 99 -11 27
22 45 69 37 59 -9 115 -43 150 -90 28 -40 35 -43 134 -68 57 -15 105 -25 106
-24 5 7 53 213 50 216 -6 6 -189 52 -207 52 -10 0 -18 -7 -18 -15 0 -19 -14
-19 -29 -1 -6 7 -37 25 -69 39 -124 56 -240 70 -333 41z"/>
<path d="M2442 1735 c-76 -34 -75 -132 3 -210 103 -104 248 -126 290 -44 31
59 14 110 -60 178 -78 72 -173 103 -233 76z"/>
<path d="M5464 1625 c-34 -7 -76 -21 -93 -29 -30 -16 -31 -16 -31 4 0 19 -6
20 -230 20 l-230 0 0 -115 0 -115 44 0 44 0 4 -152 c5 -175 14 -204 76 -260
51 -46 115 -66 256 -79 189 -18 394 10 493 67 40 23 103 96 103 119 0 7 -51
15 -142 22 -143 12 -143 12 -168 -11 -37 -35 -64 -46 -110 -46 -90 0 -140 48
-140 133 l0 34 63 -14 c80 -19 242 -13 315 12 62 21 139 85 158 132 34 81 3
180 -73 235 -74 54 -210 71 -339 43z m26 -160 c36 -19 50 -43 50 -88 0 -69
-97 -111 -175 -75 -23 10 -25 16 -25 80 0 37 1 68 3 68 1 0 20 7 42 15 52 18
70 18 105 0z"/>
</g>
</svg>
