<?xml version="1.0" encoding="utf-8"?>
<svg fill="#000000" height="800px" width="800px" version="1.1" viewBox="0 0 470 470" enable-background="new 0 0 470 470" xmlns="http://www.w3.org/2000/svg">
  <defs/>
  <g>
    <path d="M325,90h-15V32.5c0-4.142-3.357-7.5-7.5-7.5h-70c-4.143,0-7.5,3.358-7.5,7.5s3.357,7.5,7.5,7.5H295v57.5   c0,4.142,3.357,7.5,7.5,7.5H325c71.683,0,130,58.318,130,130s-58.317,130-130,130h-22.5c-4.143,0-7.5,3.358-7.5,7.5v35   c0,12.407-10.094,22.5-22.5,22.5h-235C25.094,430,15,419.907,15,407.5V40h187.5c4.143,0,7.5-3.358,7.5-7.5s-3.357-7.5-7.5-7.5H7.5   C3.357,25,0,28.358,0,32.5v375C0,428.178,16.822,445,37.5,445h235c20.678,0,37.5-16.822,37.5-37.5V380h15   c79.953,0,145-65.047,145-145S404.953,90,325,90z"/>
    <path d="m302.5,340h22.5c57.897,0 105-47.103 105-105s-47.103-105-105-105h-22.5c-4.143,0-7.5,3.358-7.5,7.5v195c0,4.142 3.357,7.5 7.5,7.5zm7.5-195h15c49.626,0 90,40.374 90,90s-40.374,90-90,90h-15v-180z"/>
    <circle cx="84.977" cy="390" r="7.5"/>
    <circle cx="54.977" cy="360" r="7.5"/>
  </g>
  <text style="font-family: 'Century Schoolbook'; font-size: 150px; white-space: pre;" transform="matrix(1.615069, 0, 0, 1.460353, -55.773582, -54.391575)" x="39.541" y="207.591">S</text>
  <text style="white-space: pre; fill: rgb(51, 51, 51); font-family: Arial, sans-serif; font-size: 28px;" x="98.853" y="119.522"> </text>
  <text style="white-space: pre; fill: rgb(51, 51, 51); font-family: Arial, sans-serif; font-size: 28px;" x="191.415" y="307.143"> </text>
  <text style="font-family: 'Century Schoolbook'; font-size: 150px; white-space: pre;" transform="matrix(2.240392, 0, 0, 1.933041, 53.398262, -27.052673)" x="39.541" y="207.591">c</text>
</svg>